# xmcd CD database file
#
# Track frame offsets:
#	150
#	27222
#	54017
#	75950
#	100790
#	117729
#	145812
#	177787
#	203480
#	230870
#	259565
#
# Disc length: 3888 seconds
#
# Revision: 0
# Processed by: cddbd v1.5.2PL0 Copyright (c) Steve Scherf et al.
# Submitted via: CDex 1.91
#
DISCID=840f2e0b
DTITLE=The Buck Creek Jazz Band - Capital Jazz
DYEAR=1997
DGENRE=Jazz
TTITLE0=JazzSea Strut
TTITLE1=Chimes Blues
TTITLE2=Get Out Of Here
TTITLE3=Walking With The King
TTITLE4=Brownskin Mama
TTITLE5=Down In Honky Tone Town
TTITLE6=Blue Bell
TTITLE7=Tollgate Blues
TTITLE8=Streaky Rasher
TTITLE9=Lazy Blues
TTITLE10=Chattanooga Stomp
EXTD=YEAR: 1997
EXTT0=
EXTT1=
EXTT2=
EXTT3=
EXTT4=
EXTT5=
EXTT6=
EXTT7=
EXTT8=
EXTT9=
EXTT10=
PLAYORDER=
